<svg xmlns="http://www.w3.org/2000/svg" width="3153.0131" height="324.6328" viewBox="0 0 3153.0131 324.6328"><title>ppm-logo-color</title><g id="Layer_2" data-name="Layer 2"><g id="Layer_1-2" data-name="Layer 1"><g id="ppm-logo-color"><path d="M414.8969,84.3359l-19.1412-3.6211V62.6084h42.1622q4.1345,0,16.0366-.5176,14.9985-1.0305,27.16-1.0346,27.9354,0,43.9727,6.7255,16.0349,6.7288,22.7622,19.27,6.7228,12.5493,6.7251,31.6855,0,33.1128-20.1758,51.4736-20.1753,18.3706-57.4228,18.3653a154.3062,154.3062,0,0,1-17.8477-.7754V234.877l34.1436,2.8457v17.0712H394.98V237.7227l19.917-2.587Zm61.0439,86.91q33.6219,0,33.626-51.4736,0-21.4674-8.4063-31.4273-8.4089-9.9543-25.22-9.9585a78.1291,78.1291,0,0,0-11.3809.6465q-4.1411.6489-5.6909.9053v90.0146Q464.0407,171.25,475.9408,171.2461Z"/><path d="M580.181,141.6289a63.4679,63.4679,0,0,1,26.5132-25.7363,79.1645,79.1645,0,0,1,36.6006-8.5362q32.5912,0,51.0855,19.5293,18.4906,19.5322,18.4946,54.4483,0,25.607-9.83,42.68a62.22,62.22,0,0,1-26.3833,25.3486q-16.5564,8.2749-36.9888,8.2773-32.3364,0-50.8266-19.5292Q570.35,218.584,570.3519,183.6621,570.3519,158.83,580.181,141.6289Zm80.5733,84.583q6.0747-13.32,6.0786-41.7744,0-30.2637-5.82-44.6191t-19.5288-14.3555q-25.3536,0-25.3492,55.0947,0,30.0088,6.208,44.49,6.208,14.4886,19.917,14.4853Q654.6755,239.5332,660.7543,226.2119Z"/><path d="M742.1034,143.5693a65.6828,65.6828,0,0,1,26.1245-26.7714q16.8112-9.4395,38.7993-9.4415a107.4121,107.4121,0,0,1,18.753,1.4229,134.7686,134.7686,0,0,1,16.1665,4.0088q7.4993,2.0742,9.3115,2.3281l-1.8106,46.8184H823.3231l-6.7256-29.7461a6.6138,6.6138,0,0,0-4.2675-4.7862,22.3385,22.3385,0,0,0-8.4068-1.4218q-12.1611,0-19.0117,11.8984-6.8562,11.9-6.8545,39.5752,0,26.3833,8.6655,40.48,8.6631,14.1006,23.4087,14.0967a66.02,66.02,0,0,0,35.1778-9.8292l6.9839,15.2618q-6.2073,6.9828-20.4341,13.5791a74.129,74.129,0,0,1-31.5567,6.5966q-33.8891,0-50.6977-20.0468-16.8171-20.0421-16.813-53.6719Q732.7914,160.9009,742.1034,143.5693Z"/><path d="M882.5551,68.04l-17.5889-3.3623V48.8994l51.4736-6.208h.7759l7.5015,5.4316V168.918l-.7759,12.6748L972.57,130.377l-19.1411-2.8448V111.2363h70.356v16.2959l-21.21,3.3623-27.9355,26.6426,42.6792,77.8574,13.4506,2.3282v17.0712H958.86V237.7227l11.64-2.3282L944.8925,184.18l-20.9512,21.7275.5171,13.1914v16.2959l15.0024,2.3282v17.0712H868.329V237.7227l14.2261-2.3282Z"/><path d="M1052.493,237.5928q-17.072-20.0421-17.0717-54.7071,0-23.5341,8.7944-40.61a61.0272,61.0272,0,0,1,24.7022-25.9951q15.9073-8.9238,37.3764-8.9239,27.16,0,41.5156,13.709,14.3556,13.7139,14.8731,38.8,0,16.5557-2.3281,26.6416h-80.961q1.2913,21.9888,10.7344,33.4971,9.4388,11.5122,26.5127,11.5107a67.8675,67.8675,0,0,0,20.0464-3.2333,69.9084,69.9084,0,0,0,16.9424-7.3721l7.2422,15.7783q-6.7289,7.5058-22.8912,14.2266a85.1691,85.1691,0,0,1-32.9794,6.7255Q1069.56,257.64,1052.493,237.5928Zm69.0625-68.1573.2588-10.8642q0-16.295-4.3974-24.8311-4.4011-8.5356-15.0025-8.5361-10.8633,0-16.813,9.4414-5.953,9.4453-6.4663,34.79Z"/><path d="M1200.0555,249.2324q-8.1474-7.8867-8.1474-24.4433v-92.084H1176.13v-15.002l5.1728-2.0693a83.1667,83.1667,0,0,0,10.8638-4.3975,34.8359,34.8359,0,0,0,8.2773-12.9326,232.9281,232.9281,0,0,0,8.5357-26.125h24.0556l1.5523,38.7988h36.9883v21.7276h-36.4712V201.251q0,14.2279.7759,19.917.7762,5.6923,2.9746,7.372,2.1949,1.6847,8.1479,1.6807a64.0816,64.0816,0,0,0,23.021-4.1387l5.4317,16.2959q-7.2444,5.9532-21.4688,10.3467a96.7694,96.7694,0,0,1-28.7114,4.3975Q1208.2032,257.1221,1200.0555,249.2324Z"/><path d="M1366.5014,84.3359,1347.36,80.7148V62.6084h42.1621q4.1346,0,16.0367-.5176,14.9985-1.0305,27.16-1.0346,27.9354,0,43.9727,6.7255,16.0349,6.7288,22.7622,19.27,6.7229,12.5493,6.7251,31.6855,0,33.1128-20.1758,51.4736-20.1753,18.3706-57.4228,18.3653a154.3062,154.3062,0,0,1-17.8477-.7754V234.877l34.1436,2.8457v17.0712h-98.2915V237.7227l19.917-2.587Zm61.0439,86.91q33.6218,0,33.626-51.4736,0-21.4674-8.4063-31.4273-8.4089-9.9543-25.22-9.9585a78.1291,78.1291,0,0,0-11.3809.6465q-4.141.6489-5.6909.9053v90.0146Q1415.6452,171.25,1427.5453,171.2461Z"/><path d="M1540.71,178.4893q23.1468-12.1567,60.9151-12.417v-5.1729q0-9.312-2.0694-14.7431a14.7632,14.7632,0,0,0-7.5009-8.1485q-5.4324-2.7157-16.0371-2.7158a79.1611,79.1611,0,0,0-22.6328,2.9746,166.3811,166.3811,0,0,0-20.8223,7.89l-8.7949-18.6241a82.6165,82.6165,0,0,1,13.4506-8.1474,113.0507,113.0507,0,0,1,22.3741-8.2774,105.1938,105.1938,0,0,1,27.289-3.4922q20.691,0,32.4619,5.4317a32.6664,32.6664,0,0,1,16.813,16.8135q5.0442,11.3847,5.044,31.039v76.8233h13.45v16.2949q-5.9532,1.292-16.5542,2.5869a153.3319,153.3319,0,0,1-18.1065,1.293q-9.8327,0-13.062-2.8448-3.2373-2.8432-3.2334-11.3808v-5.9492a60.9239,60.9239,0,0,1-17.33,13.8378q-10.8633,6.0749-25.09,6.0791a46.3268,46.3268,0,0,1-22.1157-5.3027,39.4518,39.4518,0,0,1-15.7783-15.2617q-5.82-9.9535-5.82-23.667Q1517.56,190.65,1540.71,178.4893Zm51.086,52.6367a38.5174,38.5174,0,0,0,9.8291-6.5957v-41.127q-20.1753,0-29.8755,7.2422-9.6994,7.2451-9.7,18.624,0,11.64,5.1733,18.1065,5.171,6.4688,14.2261,6.4668A24.3418,24.3418,0,0,0,1591.7958,231.126Z"/><path d="M1700.9486,233.3252q1.8069,2.8491,8.4068,5.1728a39.7681,39.7681,0,0,0,13.3212,2.3282q10.6026,0,16.1661-4.5264a14.4633,14.4633,0,0,0,5.5615-11.7695q0-7.7593-7.2427-12.8037-7.2444-5.0435-23.7969-12.2862l-9.8291-4.3974q-16.8171-7.4986-25.22-18.2354-8.4083-10.7315-8.4062-27.289a34.9914,34.9914,0,0,1,6.9838-21.34q6.9837-9.4395,20.1753-14.873,13.1917-5.4316,31.04-5.4317a128.9533,128.9533,0,0,1,21.4687,1.5518q9.0513,1.5526,18.3653,3.88a52.0821,52.0821,0,0,0,9.3125,2.0693v35.1777h-23.0215l-6.7251-19.917q-1.2978-2.3276-6.208-4.2675a30.1043,30.1043,0,0,0-11.1226-1.94q-9.8334,0-15.5195,4.2686a13.6422,13.6422,0,0,0-5.6909,11.5107,15.37,15.37,0,0,0,6.4668,13.0616q6.4622,4.79,20.6928,11.2519l5.4322,2.3281q20.951,8.7964,32.85,19.0118,11.8953,10.2216,11.8989,28.0654,0,19.144-15.2612,31.4267-15.2652,12.2886-45.0074,12.2871a120.7458,120.7458,0,0,1-24.3139-2.1992q-10.6092-2.1944-23.28-5.8193l-8.5356-2.3281V212.8906h24.5727Z"/><path d="M1837.5223,233.3252q1.8069,2.8491,8.4058,5.1728a39.7691,39.7691,0,0,0,13.3213,2.3282q10.604,0,16.167-4.5264a14.4624,14.4624,0,0,0,5.56-11.7695q0-7.7593-7.2422-12.8037-7.245-5.0435-23.7968-12.2862l-9.8291-4.3974q-16.8172-7.4986-25.2193-18.2354-8.4081-10.7315-8.4062-27.289a34.9967,34.9967,0,0,1,6.9834-21.34q6.9843-9.4395,20.1758-14.873,13.1916-5.4316,31.04-5.4317a128.9622,128.9622,0,0,1,21.4688,1.5518q9.0512,1.5526,18.3642,3.88a52.095,52.095,0,0,0,9.3125,2.0693v35.1777H1890.806l-6.7246-19.917q-1.2978-2.3276-6.208-4.2675a30.1084,30.1084,0,0,0-11.123-1.94q-9.832,0-15.52,4.2686a13.6431,13.6431,0,0,0-5.69,11.5107,15.37,15.37,0,0,0,6.4668,13.0616q6.4629,4.79,20.6924,11.2519l5.4326,2.3281q20.9517,8.7964,32.85,19.0118,11.8945,10.2216,11.8985,28.0654,0,19.144-15.2608,31.4267-15.265,12.2886-45.0068,12.2871a120.74,120.74,0,0,1-24.314-2.1992q-10.61-2.1944-23.2793-5.8193l-8.5361-2.3281V212.8906h24.5722Z"/><path d="M2026.8119,84.3359l-27.4189-3.6211V62.6084h87.9453l27.4179,108.12,6.208,28.7119,5.1729-28.7119,27.16-108.12h87.4278V80.7148l-28.1944,3.6211L2233.223,234.877l19.917,2.8457v17.0712h-87.1689V237.7227l21.9863-2.8457-10.8633-111.4834-4.6562-45.5245-9.0528,41.3858L2129.5,247.293h-33.8848l-36.2129-124.417-11.8984-45.2652-3.1035,45.7828L2034.83,234.877l26.3838,2.8457v17.0712H1986.46V237.7227l21.4688-2.587Z"/><path d="M2284.0492,178.4893q23.146-12.1567,60.915-12.417v-5.1729q0-9.312-2.0693-14.7431a14.7617,14.7617,0,0,0-7.501-8.1485q-5.4316-2.7157-16.0371-2.7158a79.1586,79.1586,0,0,0-22.6328,2.9746,166.387,166.387,0,0,0-20.8223,7.89l-8.7949-18.6241a82.6809,82.6809,0,0,1,13.45-8.1474,113.0486,113.0486,0,0,1,22.375-8.2774,105.1869,105.1869,0,0,1,27.2881-3.4922q20.6909,0,32.4629,5.4317a32.6658,32.6658,0,0,1,16.8125,16.8135q5.0435,11.3847,5.0439,31.039v76.8233h13.45v16.2949q-5.9531,1.292-16.5537,2.5869a153.3432,153.3432,0,0,1-18.1064,1.293q-9.8335,0-13.0625-2.8448-3.2373-2.8432-3.2334-11.3808v-5.9492a60.9274,60.9274,0,0,1-17.33,13.8378q-10.8648,6.0749-25.0908,6.0791a46.3269,46.3269,0,0,1-22.1153-5.3027,39.4487,39.4487,0,0,1-15.7783-15.2617q-5.82-9.9535-5.82-23.667Q2260.8988,190.65,2284.0492,178.4893Zm51.0859,52.6367a38.5227,38.5227,0,0,0,9.8291-6.5957v-41.127q-20.1753,0-29.875,7.2422-9.7,7.2451-9.7,18.624,0,11.64,5.1729,18.1065,5.1723,6.4688,14.2266,6.4668A24.34,24.34,0,0,0,2335.1351,231.126Z"/><path d="M2426.4408,138.1377l-15.2607-4.6563V113.3057l47.0761-5.69h.7764l6.7246,5.4317v9.57l-.2578,5.9492q9.05-8.5356,23.02-14.4844a73.8478,73.8478,0,0,1,29.2285-5.9492q15.52,0,24.4434,5.5606,8.9238,5.5664,12.9336,17.7187,4.0064,12.1611,4.0088,33.1084v70.874l14.4853,2.0694v17.33h-70.3564V237.7227l12.6748-2.3282V164.7793q0-12.4159-1.6817-19.27-1.6845-6.85-5.8193-9.958-4.1411-3.1041-11.8984-3.1045-11.9,0-26.9014,11.123v91.8252l14.2266,2.3282v17.0712h-71.6495V237.7227l14.2266-2.3282Z"/><path d="M2610.2181,178.4893q23.146-12.1567,60.9151-12.417v-5.1729q0-9.312-2.0693-14.7431a14.762,14.762,0,0,0-7.501-8.1485q-5.4316-2.7157-16.0371-2.7158a79.1586,79.1586,0,0,0-22.6328,2.9746,166.3811,166.3811,0,0,0-20.8223,7.89l-8.7949-18.6241a82.6719,82.6719,0,0,1,13.45-8.1474,113.0463,113.0463,0,0,1,22.375-8.2774,105.1862,105.1862,0,0,1,27.288-3.4922q20.691,0,32.4629,5.4317a32.6654,32.6654,0,0,1,16.8125,16.8135q5.0434,11.3847,5.044,31.039v76.8233h13.45v16.2949q-5.9532,1.292-16.5537,2.5869a153.3461,153.3461,0,0,1-18.1065,1.293q-9.8334,0-13.0625-2.8448-3.2373-2.8432-3.2334-11.3808v-5.9492a60.9274,60.9274,0,0,1-17.33,13.8378q-10.8647,6.0749-25.0908,6.0791a46.3262,46.3262,0,0,1-22.1152-5.3027,39.4487,39.4487,0,0,1-15.7783-15.2617q-5.82-9.9535-5.82-23.667Q2587.0678,190.65,2610.2181,178.4893Zm51.086,52.6367a38.5262,38.5262,0,0,0,9.8291-6.5957v-41.127q-20.1753,0-29.875,7.2422-9.7,7.2451-9.7,18.624,0,11.64,5.1728,18.1065,5.1725,6.4688,14.2266,6.4668A24.34,24.34,0,0,0,2661.3041,231.126Z"/><path d="M2750.4105,313.51q-15.9081-11.124-15.9082-29.7461,0-10.3477,6.9844-19.6582a43.4809,43.4809,0,0,1,17.5889-13.9678q-12.1613-6.9829-12.1573-22.2441,0-8.2764,5.6905-16.167a35.9547,35.9547,0,0,1,15.2617-12.0274q-28.7124-10.6039-28.7119-43.9726a39.9723,39.9723,0,0,1,8.7949-25.7373q8.7906-10.9908,23.7969-16.8125a90.8063,90.8063,0,0,1,33.1084-5.82q32.3305,0,47.3349,11.8985,3.62-4.3946,11.3809-8.4063a34.533,34.533,0,0,1,16.0371-4.01h9.3125v31.5566h-25.6084a43.6226,43.6226,0,0,1,2.5869,14.7441q0,23.8008-16.8125,37.7647-16.8179,13.9688-47.8525,13.9678a100.4278,100.4278,0,0,1-20.9522-1.8106,34.4837,34.4837,0,0,0-2.457,6.4668,21.8851,21.8851,0,0,0-.9053,5.4317q0,8.02,5.9492,10.9931,5.9473,2.9766,21.7276,2.9746h26.6426q54.5727,0,54.5771,39.0577a42.9752,42.9752,0,0,1-11.8984,30.0048q-11.9,12.9317-31.169,19.7881a120.7386,120.7386,0,0,1-40.7392,6.8545Q2766.3177,324.6328,2750.4105,313.51Zm80.8321-15.7784q10.0869-7.5044,10.0869-21.21,0-10.8633-5.4317-15.3906t-19.1406-4.5264h-26.3838q-4.14,0-9.3115-.5176-4.9174,8.0157-4.915,19.917,0,29.2266,30.7812,29.23Q2821.15,305.2334,2831.2426,297.7314Zm-11.77-118.5957q4.7828-8.1489,4.7852-23.4091,0-16.5513-4.9141-24.0557-4.9174-7.5-15.7783-7.501-21.9888,0-21.9863,30.5215,0,32.5913,22.2441,32.5918Q2814.6884,187.2832,2819.473,179.1357Z"/><path d="M2915.5648,237.5928q-17.0712-20.0421-17.0713-54.7071,0-23.5341,8.795-40.61a61.0176,61.0176,0,0,1,24.7021-25.9951q15.9068-8.9238,37.376-8.9239,27.16,0,41.5156,13.709,14.3555,13.7139,14.8731,38.8,0,16.5557-2.3282,26.6416h-80.9609q1.29,21.9888,10.7344,33.4971,9.4393,11.5122,26.5127,11.5107a67.8593,67.8593,0,0,0,20.0459-3.2333,69.9,69.9,0,0,0,16.9423-7.3721l7.2432,15.7783q-6.7294,7.5058-22.8916,14.2266a85.17,85.17,0,0,1-32.9795,6.7255Q2932.6333,257.64,2915.5648,237.5928Zm69.0635-68.1573.2578-10.8642q0-16.295-4.3965-24.8311-4.4017-8.5356-15.0029-8.5361-10.8633,0-16.8125,9.4414-5.953,9.4453-6.4668,34.79Z"/><path d="M3044.892,237.7227l15.7783-2.3282V138.1377l-15.2607-4.6563V113.3057l42.9375-5.69h.7763l7.2422,5.4317v6.208l-.7754,21.4687h.7754q1.8077-5.9472,8.2774-13.8379a60.1941,60.1941,0,0,1,16.4248-13.7089,42.0576,42.0576,0,0,1,21.5986-5.82q6.7236,0,10.3467,1.8106v45.0068a36.2191,36.2191,0,0,0-8.9239-4.914,35.2882,35.2882,0,0,0-12.2861-1.8106,53.8768,53.8768,0,0,0-16.8135,2.4571,45.2227,45.2227,0,0,0-11.8984,5.5615v79.9267l28.4531,2.586v16.8134H3044.892Z"/><rect id="BG" width="315.3333" height="315.3333" rx="73.4727" fill="#ffd527"/><g id="Asterisc"><path d="M277.09,137.1109,270.521,116.893a15.3443,15.3443,0,0,0-19.335-9.8517L183.64,128.9883V57.9669a15.3443,15.3443,0,0,0-15.3443-15.3443H147.0372a15.3444,15.3444,0,0,0-15.3444,15.3443v71.0216L64.1473,107.0416a15.3444,15.3444,0,0,0-19.335,9.8517l-6.5692,20.2179a15.3443,15.3443,0,0,0,9.8517,19.335L115.64,178.3931,73.8949,235.8508a15.3444,15.3444,0,0,0,3.3946,21.433l17.1984,12.4954a15.3445,15.3445,0,0,0,21.4331-3.3947l41.7454-57.4576,41.7454,57.4576a15.3445,15.3445,0,0,0,21.4331,3.3947l17.1983-12.4954a15.3443,15.3443,0,0,0,3.3947-21.433L199.6923,178.393l67.5462-21.9471A15.3444,15.3444,0,0,0,277.09,137.1109Z" fill="#333338"/></g></g></g></g></svg>