<svg xmlns="http://www.w3.org/2000/svg" width="3153.0131" height="324.6329" viewBox="0 0 3153.0131 324.6329"><title>ppm-logo-monochrome</title><g id="Layer_2" data-name="Layer 2"><g id="Layer_1-2" data-name="Layer 1"><g id="ppm-logo-monochrome"><path d="M414.8969,84.336l-19.1412-3.6211V62.6084h42.1622q4.1345,0,16.0366-.5175,14.9985-1.0307,27.16-1.0347,27.9354,0,43.9727,6.7256,16.0349,6.7287,22.7622,19.27,6.7228,12.5493,6.7251,31.6855,0,33.1128-20.1758,51.4737-20.1753,18.37-57.4228,18.3652a154.3062,154.3062,0,0,1-17.8477-.7754V234.877l34.1436,2.8457V254.794H394.98V237.7227l19.917-2.5869Zm61.0439,86.91q33.6219,0,33.626-51.4736,0-21.4672-8.4063-31.4272-8.4089-9.9544-25.22-9.9585a78.1316,78.1316,0,0,0-11.3809.6464q-4.1411.6491-5.6909.9053v90.0147Q464.0407,171.2495,475.9408,171.2461Z"/><path d="M580.181,141.6289a63.4679,63.4679,0,0,1,26.5132-25.7363,79.1656,79.1656,0,0,1,36.6006-8.5361q32.5912,0,51.0855,19.5293,18.4906,19.5322,18.4946,54.4482,0,25.607-9.83,42.68a62.2189,62.2189,0,0,1-26.3833,25.3486q-16.5564,8.2749-36.9888,8.2774-32.3364,0-50.8266-19.5293Q570.35,218.584,570.3519,183.6622,570.3519,158.83,580.181,141.6289Zm80.5733,84.5831q6.0747-13.32,6.0786-41.7745,0-30.2636-5.82-44.6191t-19.5288-14.3555q-25.3536,0-25.3492,55.0948,0,30.0087,6.208,44.49,6.208,14.4888,19.917,14.4853Q654.6755,239.5332,660.7543,226.212Z"/><path d="M742.1034,143.5694a65.6831,65.6831,0,0,1,26.1245-26.7715q16.8112-9.4395,38.7993-9.4414a107.4138,107.4138,0,0,1,18.753,1.4228,134.7876,134.7876,0,0,1,16.1665,4.0088q7.4993,2.0742,9.3115,2.3282l-1.8106,46.8183H823.3231l-6.7256-29.7461a6.614,6.614,0,0,0-4.2675-4.7861,22.3387,22.3387,0,0,0-8.4068-1.4219q-12.1611,0-19.0117,11.8984-6.8562,11.9-6.8545,39.5752,0,26.3833,8.6655,40.48,8.6631,14.1006,23.4087,14.0967a66.02,66.02,0,0,0,35.1778-9.8291l6.9839,15.2617q-6.2073,6.983-20.4341,13.5791a74.1275,74.1275,0,0,1-31.5567,6.5967q-33.8891,0-50.6977-20.0469-16.8172-20.0419-16.813-53.6719Q732.7914,160.901,742.1034,143.5694Z"/><path d="M882.5551,68.04l-17.5889-3.3623V48.9L916.44,42.6914h.7759l7.5015,5.4317V168.918l-.7759,12.6748L972.57,130.377l-19.1411-2.8447V111.2364h70.3559v16.2959l-21.21,3.3623-27.9355,26.6426,42.6792,77.8574,13.4506,2.3281V254.794H958.86V237.7227l11.64-2.3281L944.8925,184.18l-20.9512,21.7276.5171,13.1914v16.2959l15.0024,2.3281V254.794H868.329V237.7227l14.2261-2.3281Z"/><path d="M1052.493,237.5928q-17.072-20.0419-17.0717-54.707,0-23.5342,8.7944-40.61a61.0277,61.0277,0,0,1,24.7022-25.9951q15.9073-8.9238,37.3764-8.9238,27.16,0,41.5156,13.709,14.3556,13.7137,14.8731,38.8,0,16.5557-2.3281,26.6416h-80.961q1.2913,21.9888,10.7344,33.497,9.4388,11.5124,26.5127,11.5108a67.8678,67.8678,0,0,0,20.0464-3.2334,69.9045,69.9045,0,0,0,16.9424-7.3721l7.2422,15.7783q-6.7289,7.5058-22.8912,14.2266a85.1693,85.1693,0,0,1-32.98,6.7256Q1069.56,257.64,1052.493,237.5928Zm69.0625-68.1572.2588-10.8643q0-16.295-4.3974-24.831-4.4011-8.5357-15.0025-8.5362-10.8633,0-16.813,9.4414-5.953,9.4453-6.4663,34.79Z"/><path d="M1200.0555,249.2325q-8.1474-7.8867-8.1474-24.4434v-92.084H1176.13V117.7032l5.1728-2.0694a83.1812,83.1812,0,0,0,10.8638-4.3974,34.8375,34.8375,0,0,0,8.2773-12.9326,232.9351,232.9351,0,0,0,8.5357-26.125h24.0556l1.5523,38.7988h36.9883v21.7275h-36.4712V201.251q0,14.2281.7759,19.917.7762,5.6923,2.9746,7.3721,2.1949,1.6845,8.1479,1.6806a64.0837,64.0837,0,0,0,23.021-4.1386l5.4316,16.2959q-7.2442,5.9531-21.4687,10.3467a96.7725,96.7725,0,0,1-28.7114,4.3974Q1208.2032,257.1221,1200.0555,249.2325Z"/><path d="M1366.5013,84.336,1347.36,80.7149V62.6084h42.1621q4.1346,0,16.0367-.5175,14.9985-1.0307,27.16-1.0347,27.9354,0,43.9727,6.7256,16.0349,6.7287,22.7622,19.27,6.7229,12.5493,6.7251,31.6855,0,33.1128-20.1758,51.4737-20.1753,18.37-57.4228,18.3652a154.3062,154.3062,0,0,1-17.8477-.7754V234.877l34.1436,2.8457V254.794h-98.2915V237.7227l19.9169-2.5869Zm61.044,86.91q33.6218,0,33.626-51.4736,0-21.4672-8.4063-31.4272-8.4089-9.9544-25.22-9.9585a78.1316,78.1316,0,0,0-11.3809.6464q-4.141.6491-5.6909.9053v90.0147Q1415.6452,171.2495,1427.5453,171.2461Z"/><path d="M1540.71,178.4893q23.1468-12.1567,60.9151-12.417V160.9q0-9.3122-2.0694-14.7432a14.7627,14.7627,0,0,0-7.5009-8.1484q-5.4324-2.7159-16.0371-2.7159a79.1658,79.1658,0,0,0-22.6329,2.9746,166.4015,166.4015,0,0,0-20.8222,7.89l-8.7949-18.624a82.6155,82.6155,0,0,1,13.4506-8.1475,113.0572,113.0572,0,0,1,22.3741-8.2773,105.19,105.19,0,0,1,27.289-3.4922q20.691,0,32.4619,5.4316a32.6667,32.6667,0,0,1,16.813,16.8135Q1641.2,141.2451,1641.2,160.9v76.8232h13.45v16.2949q-5.9532,1.292-16.5542,2.5869a153.31,153.31,0,0,1-18.1065,1.293q-9.8327,0-13.062-2.8447-3.2373-2.8433-3.2334-11.3809v-5.9492a60.9242,60.9242,0,0,1-17.33,13.8379q-10.8633,6.0747-25.09,6.0791a46.3268,46.3268,0,0,1-22.1157-5.3027,39.4508,39.4508,0,0,1-15.7783-15.2618q-5.82-9.9535-5.82-23.667Q1517.56,190.6505,1540.71,178.4893Zm51.086,52.6367a38.5148,38.5148,0,0,0,9.8291-6.5957V183.4034q-20.1753,0-29.8755,7.2421-9.6994,7.2451-9.7,18.6241,0,11.64,5.1733,18.1064,5.171,6.4688,14.2261,6.4668A24.3418,24.3418,0,0,0,1591.7958,231.126Z"/><path d="M1700.9486,233.3252q1.8069,2.8493,8.4068,5.1729a39.77,39.77,0,0,0,13.3212,2.3281q10.6026,0,16.1661-4.5264a14.4633,14.4633,0,0,0,5.5615-11.7695q0-7.7592-7.2427-12.8037-7.2444-5.0435-23.7969-12.2861l-9.8291-4.3975q-16.8171-7.4985-25.22-18.2353-8.4083-10.7314-8.4063-27.2891a34.9909,34.9909,0,0,1,6.9839-21.34q6.9837-9.4395,20.1753-14.8731,13.1917-5.4316,31.04-5.4316a128.9543,128.9543,0,0,1,21.4687,1.5517q9.0513,1.5528,18.3653,3.88a52.0731,52.0731,0,0,0,9.3125,2.0693v35.1778h-23.0215l-6.7251-19.917q-1.2979-2.3277-6.208-4.2676a30.1043,30.1043,0,0,0-11.1226-1.94q-9.8334,0-15.5195,4.2685a13.6424,13.6424,0,0,0-5.6909,11.5108,15.37,15.37,0,0,0,6.4668,13.0615q6.4622,4.79,20.6928,11.2519l5.4322,2.3282q20.9508,8.7963,32.85,19.0117,11.8952,10.2216,11.8989,28.0654,0,19.144-15.2612,31.4268-15.2652,12.2886-45.0074,12.2871a120.7458,120.7458,0,0,1-24.3139-2.1992q-10.6092-2.1943-23.28-5.8194l-8.5357-2.3281V212.8907h24.5728Z"/><path d="M1837.5223,233.3252q1.8069,2.8493,8.4058,5.1729a39.7714,39.7714,0,0,0,13.3213,2.3281q10.604,0,16.167-4.5264a14.4624,14.4624,0,0,0,5.56-11.7695q0-7.7592-7.2422-12.8037-7.245-5.0435-23.7968-12.2861l-9.8291-4.3975q-16.8172-7.4985-25.2193-18.2353-8.4081-10.7314-8.4062-27.2891a34.9962,34.9962,0,0,1,6.9834-21.34q6.9843-9.4395,20.1758-14.8731,13.1916-5.4316,31.04-5.4316a128.9632,128.9632,0,0,1,21.4688,1.5517q9.0512,1.5528,18.3642,3.88a52.086,52.086,0,0,0,9.3125,2.0693v35.1778H1890.806l-6.7246-19.917q-1.2978-2.3277-6.208-4.2676a30.1084,30.1084,0,0,0-11.123-1.94q-9.832,0-15.52,4.2685a13.6432,13.6432,0,0,0-5.69,11.5108,15.37,15.37,0,0,0,6.4668,13.0615q6.4629,4.79,20.6924,11.2519l5.4326,2.3282q20.9517,8.7963,32.85,19.0117,11.8945,10.2216,11.8985,28.0654,0,19.144-15.2608,31.4268-15.265,12.2886-45.0068,12.2871a120.74,120.74,0,0,1-24.314-2.1992q-10.61-2.1943-23.2793-5.8194l-8.5361-2.3281V212.8907h24.5722Z"/><path d="M2026.8119,84.336l-27.419-3.6211V62.6084h87.9454l27.4179,108.12,6.208,28.7119,5.1729-28.7119,27.16-108.12h87.4278V80.7149l-28.1944,3.6211,20.6924,150.541,19.917,2.8457V254.794h-87.1689V237.7227l21.9863-2.8457-10.8633-111.4834-4.6562-45.5244-9.0528,41.3857L2129.5,247.293h-33.8848l-36.2129-124.417-11.8984-45.2651-3.1035,45.7827L2034.83,234.877l26.3838,2.8457V254.794H1986.46V237.7227l21.4688-2.5869Z"/><path d="M2284.0492,178.4893q23.146-12.1567,60.915-12.417V160.9q0-9.3122-2.0693-14.7432a14.7612,14.7612,0,0,0-7.501-8.1484q-5.4316-2.7159-16.0371-2.7159a79.1621,79.1621,0,0,0-22.6328,2.9746,166.4026,166.4026,0,0,0-20.8223,7.89l-8.7949-18.624a82.68,82.68,0,0,1,13.45-8.1475,113.0528,113.0528,0,0,1,22.375-8.2773,105.1826,105.1826,0,0,1,27.2881-3.4922q20.6909,0,32.4629,5.4316a32.6661,32.6661,0,0,1,16.8125,16.8135q5.0435,11.3847,5.0439,31.0391v76.8232h13.45v16.2949q-5.9531,1.292-16.5537,2.5869a153.3217,153.3217,0,0,1-18.1064,1.293q-9.8335,0-13.0625-2.8447-3.2373-2.8433-3.2334-11.3809v-5.9492a60.9277,60.9277,0,0,1-17.33,13.8379q-10.8648,6.0747-25.0908,6.0791a46.3269,46.3269,0,0,1-22.1153-5.3027,39.4489,39.4489,0,0,1-15.7783-15.2618q-5.82-9.9535-5.82-23.667Q2260.8988,190.6505,2284.0492,178.4893Zm51.0859,52.6367a38.52,38.52,0,0,0,9.8291-6.5957V183.4034q-20.1753,0-29.875,7.2421-9.7,7.2451-9.7,18.6241,0,11.64,5.1729,18.1064,5.1723,6.4688,14.2266,6.4668A24.34,24.34,0,0,0,2335.1351,231.126Z"/><path d="M2426.4408,138.1377l-15.2607-4.6562V113.3057l47.0761-5.69h.7764l6.7246,5.4316v9.57l-.2578,5.9492q9.05-8.5356,23.02-14.4843a73.8461,73.8461,0,0,1,29.2285-5.9492q15.52,0,24.4434,5.56,8.9238,5.5664,12.9336,17.7188,4.0064,12.1611,4.0088,33.1083v70.8741l14.4853,2.0693v17.33h-70.3564V237.7227l12.6748-2.3281V164.7793q0-12.4159-1.6817-19.27-1.6845-6.85-5.8193-9.958-4.1411-3.1039-11.8984-3.1045-11.9,0-26.9014,11.1231v91.8252l14.2266,2.3281V254.794h-71.6495V237.7227l14.2266-2.3281Z"/><path d="M2610.2181,178.4893q23.146-12.1567,60.9151-12.417V160.9q0-9.3122-2.0694-14.7432a14.761,14.761,0,0,0-7.5009-8.1484q-5.4316-2.7159-16.0371-2.7159a79.1633,79.1633,0,0,0-22.6329,2.9746,166.4015,166.4015,0,0,0-20.8222,7.89l-8.7949-18.624a82.6709,82.6709,0,0,1,13.45-8.1475,113.0528,113.0528,0,0,1,22.375-8.2773,105.1819,105.1819,0,0,1,27.288-3.4922q20.691,0,32.4629,5.4316a32.6658,32.6658,0,0,1,16.8125,16.8135q5.0434,11.3847,5.044,31.0391v76.8232h13.45v16.2949q-5.9532,1.292-16.5537,2.5869a153.3246,153.3246,0,0,1-18.1065,1.293q-9.8334,0-13.0625-2.8447-3.2373-2.8433-3.2334-11.3809v-5.9492a60.9277,60.9277,0,0,1-17.33,13.8379q-10.8647,6.0747-25.0908,6.0791a46.3262,46.3262,0,0,1-22.1152-5.3027,39.4483,39.4483,0,0,1-15.7783-15.2618q-5.82-9.9535-5.82-23.667Q2587.0678,190.6505,2610.2181,178.4893Zm51.086,52.6367a38.5236,38.5236,0,0,0,9.8291-6.5957V183.4034q-20.1753,0-29.875,7.2421-9.7,7.2451-9.7,18.6241,0,11.64,5.1728,18.1064,5.1725,6.4688,14.2266,6.4668A24.34,24.34,0,0,0,2661.3041,231.126Z"/><path d="M2750.4105,313.51q-15.9081-11.124-15.9082-29.7461,0-10.3476,6.9844-19.6582a43.4809,43.4809,0,0,1,17.5889-13.9678q-12.1613-6.9828-12.1573-22.2441,0-8.2764,5.6905-16.167a35.9538,35.9538,0,0,1,15.2617-12.0273q-28.7124-10.6041-28.7119-43.9727a39.9723,39.9723,0,0,1,8.7949-25.7373q8.79-10.9906,23.7969-16.8125a90.8063,90.8063,0,0,1,33.1084-5.82q32.3305,0,47.3349,11.8984,3.62-4.3946,11.3809-8.4062a34.5319,34.5319,0,0,1,16.0371-4.01h9.3125v31.5566h-25.6084a43.6231,43.6231,0,0,1,2.5869,14.7442q0,23.8008-16.8125,37.7646-16.8179,13.9688-47.8525,13.9678a100.4355,100.4355,0,0,1-20.9522-1.81,34.4715,34.4715,0,0,0-2.457,6.4668,21.88,21.88,0,0,0-.9053,5.4316q0,8.02,5.9492,10.9932,5.9473,2.9764,21.7276,2.9746h26.6426q54.5727,0,54.5771,39.0576a42.9755,42.9755,0,0,1-11.8984,30.0049q-11.9,12.9317-31.169,19.7881a120.7386,120.7386,0,0,1-40.7392,6.8545Q2766.3177,324.6329,2750.4105,313.51Zm80.8321-15.7783q10.0869-7.5044,10.0869-21.21,0-10.8633-5.4317-15.3906t-19.1406-4.5264h-26.3838q-4.14,0-9.3115-.5175-4.9174,8.0156-4.915,19.9169,0,29.2266,30.7812,29.23Q2821.15,305.2334,2831.2426,297.7315Zm-11.77-118.5957q4.7828-8.1489,4.7852-23.4092,0-16.5513-4.9141-24.0557-4.9174-7.5-15.7783-7.5009-21.9888,0-21.9863,30.5214,0,32.5914,22.2441,32.5918Q2814.6884,187.2832,2819.473,179.1358Z"/><path d="M2915.5648,237.5928q-17.0712-20.0419-17.0713-54.707,0-23.5342,8.795-40.61a61.0181,61.0181,0,0,1,24.7021-25.9951q15.9068-8.9238,37.376-8.9238,27.16,0,41.5156,13.709,14.3555,13.7137,14.8731,38.8,0,16.5557-2.3282,26.6416h-80.9609q1.29,21.9888,10.7344,33.497,9.4393,11.5124,26.5127,11.5108a67.86,67.86,0,0,0,20.0459-3.2334,69.8966,69.8966,0,0,0,16.9423-7.3721l7.2432,15.7783q-6.7294,7.5058-22.8916,14.2266a85.17,85.17,0,0,1-32.9795,6.7256Q2932.6333,257.64,2915.5648,237.5928Zm69.0635-68.1572.2578-10.8643q0-16.295-4.3965-24.831-4.4017-8.5357-15.0029-8.5362-10.8633,0-16.8125,9.4414-5.9532,9.4453-6.4668,34.79Z"/><path d="M3044.892,237.7227l15.7783-2.3281V138.1377l-15.2608-4.6562V113.3057l42.9375-5.69h.7764l7.2422,5.4316v6.208l-.7754,21.4688h.7754q1.8077-5.9473,8.2773-13.8379a60.1963,60.1963,0,0,1,16.4249-13.709,42.0575,42.0575,0,0,1,21.5986-5.82q6.7236,0,10.3467,1.8105v45.0069a36.2162,36.2162,0,0,0-8.9239-4.9141,35.2884,35.2884,0,0,0-12.2861-1.8105,53.88,53.88,0,0,0-16.8135,2.457,45.2259,45.2259,0,0,0-11.8984,5.5615v79.9268l28.4531,2.5859V254.794H3044.892Z"/><path d="M241.8606,0H73.4727A73.4728,73.4728,0,0,0,0,73.4728V241.8607a73.4728,73.4728,0,0,0,73.4727,73.4727H241.8606a73.4728,73.4728,0,0,0,73.4728-73.4727V73.4728A73.4728,73.4728,0,0,0,241.8606,0Zm25.3779,156.4459-67.5461,21.947,41.7455,57.4579a15.3443,15.3443,0,0,1-3.3947,21.433l-17.1984,12.4954a15.3442,15.3442,0,0,1-21.433-3.3947l-41.7454-57.4576L115.921,266.3845a15.3444,15.3444,0,0,1-21.4331,3.3947L77.29,257.2838a15.3443,15.3443,0,0,1-3.3947-21.4331L115.64,178.3932,48.0948,156.4463a15.3446,15.3446,0,0,1-9.8517-19.3351l6.5692-20.2178a15.3444,15.3444,0,0,1,19.335-9.8518l67.5456,21.9469V57.9669a15.3443,15.3443,0,0,1,15.3443-15.3443h21.2584A15.3445,15.3445,0,0,1,183.64,57.9669v71.0215l67.546-21.9471a15.3445,15.3445,0,0,1,19.3351,9.8516L277.09,137.111A15.3443,15.3443,0,0,1,267.2385,156.4459Z"/></g></g></g></svg>