<svg id="Layer_1" data-name="Layer 1" xmlns="http://www.w3.org/2000/svg" width="3840" height="640.3333" viewBox="0 0 3840 640.3333"><title>logo-inline-black</title><g id="Aligned_Logo" data-name="Aligned Logo"><path d="M758.39,242.1862l-19.1411-3.6211V220.4587h42.1621q4.1346,0,16.0366-.5176,14.9986-1.0305,27.16-1.0347,27.9352,0,43.9727,6.7256,16.0349,6.7287,22.7622,19.27,6.7228,12.5493,6.7251,31.6856,0,33.1128-20.1758,51.4736-20.1753,18.3706-57.4229,18.3652a154.3054,154.3054,0,0,1-17.8476-.7754v47.0762l34.1435,2.8457v17.0713H738.4733V395.5729l19.917-2.5869Zm61.044,86.91q33.6217,0,33.6259-51.4737,0-21.4673-8.4062-31.4272-8.409-9.9545-25.22-9.9585a78.1149,78.1149,0,0,0-11.3809.6465q-4.1411.6489-5.6909.9052v90.0147Q807.5341,329.1,819.4343,329.0964Z"/><path d="M923.6745,299.4792a63.4676,63.4676,0,0,1,26.5132-25.7364,79.1656,79.1656,0,0,1,36.6006-8.5361q32.5912,0,51.0854,19.5293,18.4908,19.5322,18.4947,54.4482,0,25.607-9.83,42.68a62.2192,62.2192,0,0,1-26.3833,25.3487q-16.5564,8.2749-36.9888,8.2773-32.3364,0-50.8267-19.5293-18.4965-19.5264-18.4946-54.4482Q913.8454,316.68,923.6745,299.4792Zm80.5732,84.583q6.0748-13.32,6.0787-41.7744,0-30.2637-5.82-44.6192t-19.5288-14.3554q-25.3535,0-25.3491,55.0947,0,30.0087,6.208,44.49,6.208,14.4888,19.917,14.4854Q998.169,397.3835,1004.2477,384.0622Z"/><path d="M1085.5969,301.42a65.6831,65.6831,0,0,1,26.1245-26.7715q16.8113-9.44,38.7993-9.4414a107.4108,107.4108,0,0,1,18.7529,1.4229,134.7867,134.7867,0,0,1,16.1665,4.0087q7.4992,2.0744,9.3116,2.3282l-1.8106,46.8183h-26.1245l-6.7256-29.7461a6.6139,6.6139,0,0,0-4.2676-4.7861,22.3378,22.3378,0,0,0-8.4067-1.4219q-12.1611,0-19.0117,11.8985-6.8562,11.9-6.8545,39.5752,0,26.3832,8.6655,40.48,8.6631,14.1006,23.4087,14.0967a66.0194,66.0194,0,0,0,35.1777-9.8291l6.9839,15.2617q-6.2073,6.983-20.4341,13.5791a74.1268,74.1268,0,0,1-31.5566,6.5967q-33.8892,0-50.6978-20.0469-16.8171-20.0419-16.8129-53.6718Q1076.2849,318.7512,1085.5969,301.42Z"/><path d="M1226.0485,225.89,1208.46,222.528V206.75l51.4736-6.208h.7759l7.5014,5.4316V326.7682l-.7758,12.6748,48.6284-51.2158-19.1411-2.8447V269.0866h70.3559v16.2959l-21.21,3.3623-27.9356,26.6426,42.6792,77.8574,13.4507,2.3281v17.0713h-71.9082V395.5729l11.64-2.3281L1288.3859,342.03l-20.9511,21.7276.517,13.1914v16.2959l15.0025,2.3281v17.0713h-71.1318V395.5729l14.226-2.3281Z"/><path d="M1395.9865,395.443q-17.072-20.0419-17.0718-54.707,0-23.5343,8.7945-40.61a61.0272,61.0272,0,0,1,24.7021-25.9952q15.9075-8.9238,37.3765-8.9238,27.16,0,41.5156,13.709,14.3555,13.7139,14.8731,38.8,0,16.5556-2.3282,26.6416h-80.9609q1.2912,21.9888,10.7344,33.4971,9.4386,11.5122,26.5127,11.5107a67.8678,67.8678,0,0,0,20.0464-3.2334,69.9054,69.9054,0,0,0,16.9423-7.3721l7.2422,15.7784q-6.7287,7.5058-22.8911,14.2265a85.17,85.17,0,0,1-32.98,6.7256Q1413.0537,415.49,1395.9865,395.443Zm69.0625-68.1572.2588-10.8643q0-16.2948-4.3975-24.831-4.401-8.5356-15.0024-8.5361-10.8633,0-16.813,9.4414-5.9531,9.4452-6.4663,34.79Z"/><path d="M1543.549,407.0827q-8.1474-7.8867-8.1474-24.4434v-92.084h-15.7784V275.5534l5.1729-2.0694a83.1812,83.1812,0,0,0,10.8638-4.3974,34.8359,34.8359,0,0,0,8.2773-12.9326,232.9521,232.9521,0,0,0,8.5356-26.125h24.0557l1.5523,38.7988h36.9882v21.7275h-36.4712v68.5459q0,14.2281.7759,19.917.7764,5.6925,2.9746,7.3721,2.1951,1.6845,8.148,1.6807a64.0837,64.0837,0,0,0,23.021-4.1387l5.4316,16.2959q-7.2444,5.9531-21.4687,10.3467a96.7732,96.7732,0,0,1-28.7115,4.3974Q1551.6968,414.9723,1543.549,407.0827Z"/><path d="M1709.9948,242.1862l-19.1411-3.6211V220.4587h42.1621q4.1346,0,16.0366-.5176,14.9986-1.0305,27.16-1.0347,27.9353,0,43.9727,6.7256,16.0349,6.7287,22.7622,19.27,6.7229,12.5493,6.7251,31.6856,0,33.1128-20.1758,51.4736-20.1753,18.3706-57.4229,18.3652a154.3043,154.3043,0,0,1-17.8476-.7754v47.0762l34.1435,2.8457v17.0713h-98.2915V395.5729l19.917-2.5869Zm61.044,86.91q33.6217,0,33.6259-51.4737,0-21.4673-8.4062-31.4272-8.409-9.9545-25.22-9.9585a78.1139,78.1139,0,0,0-11.3809.6465q-4.141.6489-5.6909.9052v90.0147Q1759.1386,329.1,1771.0388,329.0964Z"/><path d="M1884.2033,336.34q23.1468-12.1567,60.9151-12.417V318.75q0-9.312-2.0694-14.7432a14.7629,14.7629,0,0,0-7.501-8.1484q-5.4323-2.7159-16.0371-2.7158a79.1615,79.1615,0,0,0-22.6328,2.9746,166.3787,166.3787,0,0,0-20.8222,7.89l-8.795-18.624a82.6219,82.6219,0,0,1,13.4507-8.1475,113.0561,113.0561,0,0,1,22.374-8.2773,105.1951,105.1951,0,0,1,27.2891-3.4922q20.6908,0,32.4619,5.4316a32.6671,32.6671,0,0,1,16.813,16.8135q5.0442,11.3849,5.0439,31.0391v76.8232h13.45v16.2949q-5.9531,1.2921-16.5542,2.587a153.3263,153.3263,0,0,1-18.1064,1.2929q-9.8328,0-13.062-2.8447-3.2373-2.8433-3.2334-11.3809v-5.9492a60.9216,60.9216,0,0,1-17.3306,13.8379q-10.8633,6.0747-25.09,6.0791a46.3268,46.3268,0,0,1-22.1157-5.3027,39.4521,39.4521,0,0,1-15.7784-15.2617q-5.82-9.9537-5.82-23.667Q1861.0534,348.5006,1884.2033,336.34Zm51.0859,52.6367a38.5137,38.5137,0,0,0,9.8292-6.5957V341.2536q-20.1753,0-29.8755,7.2422-9.6995,7.245-9.7,18.624,0,11.64,5.1733,18.1064,5.171,6.4688,14.2261,6.4668A24.34,24.34,0,0,0,1935.2892,388.9762Z"/><path d="M2044.4421,391.1755q1.8069,2.8491,8.4067,5.1728a39.7689,39.7689,0,0,0,13.3213,2.3281q10.6026,0,16.166-4.5263a14.4634,14.4634,0,0,0,5.5615-11.77q0-7.7592-7.2426-12.8037-7.2444-5.0435-23.7969-12.2861l-9.8291-4.3975q-16.8171-7.4985-25.22-18.2353-8.4082-10.7314-8.4063-27.2891a34.9909,34.9909,0,0,1,6.9839-21.34q6.9837-9.44,20.1753-14.8731,13.1916-5.4316,31.04-5.4316a128.9655,128.9655,0,0,1,21.4688,1.5517q9.0513,1.5528,18.3652,3.88a52.0881,52.0881,0,0,0,9.3125,2.0694V308.403h-23.0215l-6.725-19.917q-1.298-2.3277-6.2081-4.2676a30.1055,30.1055,0,0,0-11.1225-1.94q-9.8335,0-15.5195,4.2685a13.6423,13.6423,0,0,0-5.691,11.5108,15.37,15.37,0,0,0,6.4668,13.0615q6.4621,4.79,20.6929,11.252l5.4321,2.3281q20.9509,8.7965,32.85,19.0117,11.8953,10.2218,11.899,28.0654,0,19.144-15.2613,31.4268-15.265,12.2886-45.0073,12.2871a120.7468,120.7468,0,0,1-24.314-2.1992q-10.609-2.1943-23.28-5.8193l-8.5357-2.3282V370.7409h24.5728Z"/><path d="M2181.0158,391.1755q1.8069,2.8491,8.4058,5.1728a39.7681,39.7681,0,0,0,13.3213,2.3281q10.6039,0,16.167-4.5263a14.4628,14.4628,0,0,0,5.5605-11.77q0-7.7592-7.2422-12.8037-7.2452-5.0435-23.7969-12.2861l-9.8291-4.3975q-16.8171-7.4985-25.2192-18.2353-8.4082-10.7314-8.4063-27.2891a34.9969,34.9969,0,0,1,6.9834-21.34q6.9845-9.44,20.1758-14.8731,13.1917-5.4316,31.04-5.4316a128.9735,128.9735,0,0,1,21.4687,1.5517q9.0513,1.5528,18.3643,3.88a52.0973,52.0973,0,0,0,9.3125,2.0694V308.403H2234.3l-6.7246-19.917q-1.2978-2.3277-6.208-4.2676a30.1106,30.1106,0,0,0-11.1231-1.94q-9.8319,0-15.52,4.2685a13.6432,13.6432,0,0,0-5.69,11.5108,15.37,15.37,0,0,0,6.4668,13.0615q6.4629,4.79,20.6924,11.252l5.4326,2.3281q20.9516,8.7965,32.85,19.0117,11.8945,10.2218,11.8984,28.0654,0,19.144-15.2607,31.4268-15.2652,12.2886-45.0069,12.2871a120.74,120.74,0,0,1-24.3139-2.1992q-10.61-2.1943-23.2793-5.8193l-8.5362-2.3282V370.7409h24.5723Z"/><path d="M2370.3054,242.1862l-27.419-3.6211V220.4587h87.9453l27.418,108.12,6.208,28.7119,5.1729-28.7119,27.16-108.12h87.4277v18.1064l-28.1943,3.6211,20.6924,150.541,19.917,2.8457v17.0713h-87.169V395.5729l21.9864-2.8457-10.8633-111.4834-4.6563-45.5244-9.0527,41.3857-33.8848,128.0381h-33.8847l-36.2129-124.417-11.8985-45.2651-3.1035,45.7827-9.5713,111.4834,26.3838,2.8457v17.0713h-74.7529V395.5729l21.4688-2.5869Z"/><path d="M2627.5427,336.34q23.1459-12.1567,60.915-12.417V318.75q0-9.312-2.0693-14.7432a14.7615,14.7615,0,0,0-7.501-8.1484q-5.4317-2.7159-16.0371-2.7158a79.1586,79.1586,0,0,0-22.6328,2.9746,166.38,166.38,0,0,0-20.8223,7.89l-8.7949-18.624a82.6709,82.6709,0,0,1,13.45-8.1475,113.0528,113.0528,0,0,1,22.375-8.2773,105.1869,105.1869,0,0,1,27.2881-3.4922q20.6908,0,32.4629,5.4316a32.6661,32.6661,0,0,1,16.8125,16.8135q5.0434,11.3849,5.0439,31.0391v76.8232h13.45v16.2949q-5.9532,1.2921-16.5537,2.587a153.3421,153.3421,0,0,1-18.1065,1.2929q-9.8334,0-13.0625-2.8447-3.2373-2.8433-3.2334-11.3809v-5.9492a60.9254,60.9254,0,0,1-17.33,13.8379q-10.8648,6.0747-25.0909,6.0791a46.3262,46.3262,0,0,1-22.1152-5.3027,39.4493,39.4493,0,0,1-15.7783-15.2617q-5.82-9.9537-5.82-23.667Q2604.3923,348.5006,2627.5427,336.34Zm51.0859,52.6367a38.5218,38.5218,0,0,0,9.8291-6.5957V341.2536q-20.1753,0-29.875,7.2422-9.7,7.245-9.7,18.624,0,11.64,5.1729,18.1064,5.1723,6.4688,14.2265,6.4668A24.3385,24.3385,0,0,0,2678.6286,388.9762Z"/><path d="M2769.9343,295.988l-15.2608-4.6563V271.1559l47.0762-5.69h.7764l6.7246,5.4316v9.57l-.2578,5.9493q9.05-8.5358,23.02-14.4844a73.8457,73.8457,0,0,1,29.2285-5.9492q15.52,0,24.4433,5.5605,8.924,5.5665,12.9336,17.7188,4.0063,12.1611,4.0088,33.1084v70.874l14.4854,2.0693v17.33h-70.3565V395.5729l12.6748-2.3281V322.63q0-12.4161-1.6816-19.2706-1.6845-6.85-5.8193-9.958-4.1412-3.1039-11.8985-3.1045-11.9,0-26.9013,11.1231v91.8252l14.2265,2.3281v17.0713h-71.6494V395.5729l14.2266-2.3281Z"/><path d="M2953.7116,336.34q23.146-12.1567,60.9151-12.417V318.75q0-9.312-2.0694-14.7432a14.7612,14.7612,0,0,0-7.501-8.1484q-5.4317-2.7159-16.0371-2.7158a79.16,79.16,0,0,0-22.6328,2.9746,166.3787,166.3787,0,0,0-20.8222,7.89l-8.795-18.624a82.68,82.68,0,0,1,13.45-8.1475,113.0551,113.0551,0,0,1,22.375-8.2773,105.1875,105.1875,0,0,1,27.2881-3.4922q20.691,0,32.4629,5.4316a32.6661,32.6661,0,0,1,16.8125,16.8135q5.0434,11.3849,5.0439,31.0391v76.8232h13.45v16.2949q-5.9531,1.2921-16.5537,2.587a153.3405,153.3405,0,0,1-18.1064,1.2929q-9.8335,0-13.0625-2.8447-3.2373-2.8433-3.2334-11.3809v-5.9492a60.9259,60.9259,0,0,1-17.33,13.8379q-10.8648,6.0747-25.0908,6.0791a46.3262,46.3262,0,0,1-22.1152-5.3027,39.449,39.449,0,0,1-15.7784-15.2617q-5.82-9.9537-5.82-23.667Q2930.5612,348.5006,2953.7116,336.34Zm51.086,52.6367a38.5236,38.5236,0,0,0,9.8291-6.5957V341.2536q-20.1753,0-29.875,7.2422-9.7,7.245-9.7,18.624,0,11.64,5.1728,18.1064,5.1725,6.4688,14.2266,6.4668A24.3389,24.3389,0,0,0,3004.7976,388.9762Z"/><path d="M3093.904,471.36q-15.9082-11.124-15.9082-29.7461,0-10.3476,6.9844-19.6582a43.48,43.48,0,0,1,17.5888-13.9677q-12.1611-6.983-12.1572-22.2442,0-8.2764,5.69-16.167A35.9541,35.9541,0,0,1,3111.364,357.55q-28.7124-10.6041-28.712-43.9727a39.9718,39.9718,0,0,1,8.795-25.7373q8.79-10.9906,23.7968-16.8125a90.8071,90.8071,0,0,1,33.1084-5.82q32.3306,0,47.335,11.8984,3.62-4.3944,11.3809-8.4062a34.5319,34.5319,0,0,1,16.0371-4.01h9.3125v31.5567h-25.6084a43.6246,43.6246,0,0,1,2.5869,14.7441q0,23.8008-16.8125,37.7647-16.8179,13.9688-47.8526,13.9677a100.4283,100.4283,0,0,1-20.9521-1.81,34.4715,34.4715,0,0,0-2.457,6.4668,21.88,21.88,0,0,0-.9053,5.4316q0,8.02,5.9492,10.9932,5.9474,2.9766,21.7275,2.9746h26.6426q54.5729,0,54.5772,39.0576a42.9756,42.9756,0,0,1-11.8985,30.0049q-11.9,12.9316-31.1689,19.7881a120.7392,120.7392,0,0,1-40.7393,6.8545Q3109.8113,482.4831,3093.904,471.36Zm80.832-15.7783q10.0869-7.5043,10.0869-21.21,0-10.8631-5.4316-15.3906t-19.1406-4.5263h-26.3838q-4.14,0-9.3115-.5176-4.9176,8.0155-4.9151,19.917,0,29.2265,30.7813,29.23Q3164.6437,463.0837,3174.736,455.5817ZM3162.9665,336.986q4.7828-8.1489,4.7852-23.4092,0-16.5513-4.9141-24.0556-4.9174-7.5-15.7783-7.501-21.9888,0-21.9864,30.5215,0,32.5913,22.2442,32.5918Q3158.1817,345.1335,3162.9665,336.986Z"/><path d="M3259.0583,395.443q-17.0714-20.0419-17.0713-54.707,0-23.5343,8.7949-40.61a61.0192,61.0192,0,0,1,24.7022-25.9952q15.9067-8.9238,37.376-8.9238,27.16,0,41.5156,13.709,14.3554,13.7139,14.873,38.8,0,16.5556-2.3281,26.6416H3285.96q1.29,21.9888,10.7343,33.4971,9.4395,11.5122,26.5127,11.5107a67.859,67.859,0,0,0,20.0459-3.2334,69.8957,69.8957,0,0,0,16.9424-7.3721l7.2432,15.7784q-6.73,7.5058-22.8916,14.2265a85.17,85.17,0,0,1-32.9795,6.7256Q3276.1266,415.49,3259.0583,395.443Zm69.0635-68.1572.2578-10.8643q0-16.2948-4.3965-24.831-4.4019-8.5356-15.0029-8.5361-10.8633,0-16.8125,9.4414-5.9532,9.4452-6.4668,34.79Z"/><path d="M3388.3854,395.5729l15.7784-2.3281V295.988l-15.2608-4.6563V271.1559l42.9375-5.69h.7764l7.2422,5.4316v6.208l-.7754,21.4688h.7754q1.8076-5.9474,8.2773-13.8379a60.1973,60.1973,0,0,1,16.4248-13.709,42.0579,42.0579,0,0,1,21.5987-5.82q6.7236,0,10.3466,1.8106v45.0068a36.2138,36.2138,0,0,0-8.9238-4.9141,35.2888,35.2888,0,0,0-12.2861-1.81,53.8794,53.8794,0,0,0-16.8135,2.457,45.2244,45.2244,0,0,0-11.8984,5.5615v79.9268l28.4531,2.5859v16.8135h-86.6524Z"/><path d="M585.3541,157.85H416.9662a73.4728,73.4728,0,0,0-73.4727,73.4728V399.7109a73.4728,73.4728,0,0,0,73.4727,73.4727H585.3541a73.4728,73.4728,0,0,0,73.4727-73.4727V231.323A73.4728,73.4728,0,0,0,585.3541,157.85ZM610.732,314.2961l-67.5461,21.9471,41.7454,57.4578a15.3443,15.3443,0,0,1-3.3946,21.433l-17.1984,12.4954a15.3442,15.3442,0,0,1-21.433-3.3947L501.16,366.7771l-41.7455,57.4576a15.3443,15.3443,0,0,1-21.433,3.3947L420.783,415.134a15.3444,15.3444,0,0,1-3.3946-21.4331l41.7454-57.4575-67.5455-21.9469a15.3445,15.3445,0,0,1-9.8517-19.3351l6.5692-20.2177a15.3443,15.3443,0,0,1,19.335-9.8519l67.5455,21.9469V215.8171a15.3444,15.3444,0,0,1,15.3444-15.3443h21.2584a15.3444,15.3444,0,0,1,15.3443,15.3443v71.0215l67.546-21.9471a15.3445,15.3445,0,0,1,19.3351,9.8517l6.5692,20.218A15.3442,15.3442,0,0,1,610.732,314.2961Z"/></g></svg>