<?xml version="1.0" encoding="UTF-8"?>
<svg xmlns="http://www.w3.org/2000/svg" xmlns:xlink="http://www.w3.org/1999/xlink" width="945px" height="97px" viewBox="0 0 941 97" version="1.1">
<g id="surface1">
<path style=" stroke:none;fill-rule:nonzero;fill:rgb(0%,0%,0%);fill-opacity:1;" d="M 123.824219 25.171875 L 118.113281 24.089844 L 118.113281 18.6875 L 130.695312 18.6875 C 131.515625 18.6875 133.113281 18.632812 135.480469 18.53125 C 138.464844 18.328125 141.167969 18.222656 143.585938 18.222656 C 149.144531 18.222656 153.519531 18.890625 156.710938 20.230469 C 159.902344 21.570312 162.164062 23.484375 163.503906 25.980469 C 164.839844 28.480469 165.511719 31.632812 165.511719 35.4375 C 165.511719 42.027344 163.503906 47.148438 159.488281 50.800781 C 155.476562 54.457031 149.761719 56.285156 142.351562 56.28125 C 140.574219 56.308594 138.792969 56.230469 137.023438 56.050781 L 137.023438 70.101562 L 147.214844 70.949219 L 147.214844 76.046875 L 117.878906 76.046875 L 117.878906 70.949219 L 123.824219 70.179688 Z M 142.042969 51.109375 C 148.730469 51.109375 152.078125 45.988281 152.078125 35.746094 C 152.078125 31.476562 151.242188 28.347656 149.570312 26.367188 C 147.894531 24.386719 145.386719 23.394531 142.042969 23.394531 C 140.90625 23.375 139.773438 23.441406 138.644531 23.589844 C 137.820312 23.71875 137.253906 23.808594 136.949219 23.859375 L 136.949219 50.722656 C 137.976562 50.980469 139.675781 51.109375 142.042969 51.109375 Z M 142.042969 51.109375 "/>
<path style=" stroke:none;fill-rule:nonzero;fill:rgb(0%,0%,0%);fill-opacity:1;" d="M 173.152344 42.269531 C 174.96875 38.980469 177.722656 36.308594 181.066406 34.589844 C 184.449219 32.875 188.195312 32 191.988281 32.042969 C 198.472656 32.042969 203.554688 33.984375 207.234375 37.871094 C 210.914062 41.757812 212.753906 47.175781 212.753906 54.121094 C 212.753906 59.214844 211.777344 63.460938 209.820312 66.859375 C 208.015625 70.113281 205.269531 72.75 201.945312 74.425781 C 198.652344 76.070312 194.972656 76.894531 190.90625 76.894531 C 184.472656 76.894531 179.417969 74.953125 175.738281 71.066406 C 172.058594 67.179688 170.21875 61.765625 170.21875 54.816406 C 170.21875 49.875 171.195312 45.691406 173.152344 42.269531 Z M 197.199219 67.515625 C 198.40625 64.867188 199.011719 60.710938 199.011719 55.046875 C 199.011719 49.027344 198.433594 44.585938 197.277344 41.730469 C 196.117188 38.875 194.175781 37.445312 191.449219 37.445312 C 186.402344 37.445312 183.882812 42.925781 183.882812 53.890625 C 183.882812 59.859375 184.5 64.285156 185.734375 67.167969 C 186.972656 70.050781 188.953125 71.492188 191.679688 71.492188 C 194.148438 71.492188 195.988281 70.167969 197.199219 67.515625 Z M 197.199219 67.515625 "/>
<path style=" stroke:none;fill-rule:nonzero;fill:rgb(0%,0%,0%);fill-opacity:1;" d="M 221.476562 42.851562 C 223.246094 39.488281 225.957031 36.710938 229.273438 34.859375 C 232.621094 32.980469 236.480469 32.042969 240.855469 32.042969 C 242.726562 32.019531 244.601562 32.160156 246.449219 32.464844 C 248.082031 32.765625 249.695312 33.164062 251.277344 33.664062 C 252.769531 34.074219 253.695312 34.308594 254.054688 34.359375 L 253.515625 48.332031 L 245.71875 48.332031 L 243.710938 39.453125 C 243.558594 38.789062 243.078125 38.25 242.4375 38.023438 C 241.636719 37.722656 240.785156 37.578125 239.925781 37.601562 C 237.507812 37.601562 235.617188 38.785156 234.253906 41.152344 C 232.890625 43.519531 232.207031 47.457031 232.207031 52.964844 C 232.207031 58.210938 233.070312 62.238281 234.792969 65.046875 C 236.519531 67.851562 238.847656 69.253906 241.78125 69.253906 C 245.484375 69.28125 249.125 68.265625 252.277344 66.320312 L 254.363281 70.875 C 253.128906 72.261719 251.09375 73.613281 248.265625 74.925781 C 245.308594 76.265625 242.09375 76.9375 238.847656 76.894531 C 232.105469 76.894531 227.0625 74.902344 223.714844 70.914062 C 220.371094 66.925781 218.699219 61.585938 218.699219 54.894531 C 218.699219 50.3125 219.625 46.296875 221.476562 42.851562 Z M 221.476562 42.851562 "/>
<path style=" stroke:none;fill-rule:nonzero;fill:rgb(0%,0%,0%);fill-opacity:1;" d="M 263.394531 20.308594 L 258.144531 19.304688 L 258.144531 14.59375 L 273.507812 12.742188 L 273.738281 12.742188 L 275.976562 14.363281 L 275.976562 50.414062 L 275.746094 54.199219 L 290.257812 38.914062 L 284.546875 38.0625 L 284.546875 33.199219 L 305.542969 33.199219 L 305.542969 38.0625 L 299.214844 39.066406 L 290.878906 47.019531 L 303.613281 70.257812 L 307.628906 70.949219 L 307.628906 76.046875 L 286.167969 76.046875 L 286.167969 70.949219 L 289.640625 70.257812 L 282 54.96875 L 275.746094 61.457031 L 275.902344 65.394531 L 275.902344 70.257812 L 280.378906 70.953125 L 280.378906 76.046875 L 259.148438 76.046875 L 259.148438 70.949219 L 263.394531 70.257812 Z M 263.394531 20.308594 "/>
<path style=" stroke:none;fill-rule:nonzero;fill:rgb(0%,0%,0%);fill-opacity:1;" d="M 314.113281 70.914062 C 310.714844 66.925781 309.015625 61.480469 309.015625 54.585938 C 309.015625 49.902344 309.890625 45.863281 311.640625 42.464844 C 313.265625 39.199219 315.835938 36.496094 319.015625 34.707031 C 322.179688 32.929688 325.898438 32.042969 330.167969 32.042969 C 335.574219 32.042969 339.703125 33.40625 342.558594 36.132812 C 345.414062 38.863281 346.894531 42.722656 346.996094 47.714844 C 346.996094 51.007812 346.765625 53.660156 346.304688 55.664062 L 322.140625 55.664062 C 322.398438 60.039062 323.464844 63.371094 325.34375 65.664062 C 327.222656 67.953125 329.859375 69.097656 333.257812 69.097656 C 335.289062 69.078125 337.304688 68.753906 339.238281 68.132812 C 341.015625 67.625 342.714844 66.886719 344.296875 65.933594 L 346.457031 70.640625 C 345.117188 72.136719 342.839844 73.550781 339.625 74.886719 C 336.511719 76.207031 333.164062 76.886719 329.78125 76.894531 C 322.730469 76.894531 317.507812 74.902344 314.113281 70.914062 Z M 334.722656 50.570312 L 334.800781 47.328125 C 334.800781 44.085938 334.363281 41.613281 333.488281 39.917969 C 332.613281 38.21875 331.121094 37.367188 329.011719 37.367188 C 326.851562 37.367188 325.175781 38.308594 323.992188 40.1875 C 322.808594 42.066406 322.164062 45.527344 322.0625 50.570312 Z M 334.722656 50.570312 "/>
<path style=" stroke:none;fill-rule:nonzero;fill:rgb(0%,0%,0%);fill-opacity:1;" d="M 358.152344 74.386719 C 356.53125 72.816406 355.71875 70.386719 355.71875 67.089844 L 355.71875 39.605469 L 351.011719 39.605469 L 351.011719 35.128906 L 352.554688 34.511719 C 353.664062 34.152344 354.75 33.714844 355.796875 33.199219 C 356.898438 32.113281 357.742188 30.792969 358.269531 29.339844 C 359.269531 26.792969 360.121094 24.191406 360.816406 21.542969 L 367.996094 21.542969 L 368.457031 33.121094 L 379.496094 33.121094 L 379.496094 39.605469 L 368.613281 39.605469 L 368.613281 60.066406 C 368.613281 62.898438 368.6875 64.878906 368.84375 66.011719 C 368.996094 67.144531 369.292969 67.875 369.730469 68.210938 C 370.167969 68.546875 370.980469 68.710938 372.164062 68.710938 C 374.507812 68.726562 376.839844 68.304688 379.035156 67.476562 L 380.65625 72.339844 C 379.214844 73.523438 377.078125 74.554688 374.246094 75.429688 C 371.472656 76.292969 368.585938 76.738281 365.679688 76.742188 C 362.28125 76.742188 359.773438 75.957031 358.152344 74.386719 Z M 358.152344 74.386719 "/>
<path style=" stroke:none;fill-rule:nonzero;fill:rgb(0%,0%,0%);fill-opacity:1;" d="M 407.828125 25.171875 L 402.113281 24.089844 L 402.113281 18.6875 L 414.695312 18.6875 C 415.519531 18.6875 417.113281 18.632812 419.484375 18.53125 C 422.46875 18.328125 425.167969 18.222656 427.589844 18.222656 C 433.148438 18.222656 437.523438 18.890625 440.710938 20.230469 C 443.902344 21.570312 446.167969 23.484375 447.503906 25.980469 C 448.84375 28.480469 449.511719 31.632812 449.511719 35.4375 C 449.511719 42.027344 447.503906 47.148438 443.492188 50.800781 C 439.476562 54.457031 433.765625 56.285156 426.355469 56.28125 C 424.574219 56.308594 422.796875 56.230469 421.027344 56.050781 L 421.027344 70.101562 L 431.21875 70.949219 L 431.21875 76.046875 L 401.882812 76.046875 L 401.882812 70.949219 L 407.828125 70.179688 Z M 426.046875 51.109375 C 432.734375 51.109375 436.078125 45.988281 436.082031 35.746094 C 436.082031 31.476562 435.246094 28.347656 433.570312 26.367188 C 431.898438 24.386719 429.390625 23.394531 426.046875 23.394531 C 424.910156 23.375 423.773438 23.441406 422.648438 23.589844 C 421.824219 23.71875 421.257812 23.808594 420.949219 23.859375 L 420.949219 50.722656 C 421.980469 50.980469 423.675781 51.109375 426.046875 51.109375 Z M 426.046875 51.109375 "/>
<path style=" stroke:none;fill-rule:nonzero;fill:rgb(0%,0%,0%);fill-opacity:1;" d="M 459.820312 53.273438 C 464.425781 50.851562 470.484375 49.617188 478 49.566406 L 478 48.023438 C 478 46.167969 477.792969 44.703125 477.382812 43.621094 C 476.980469 42.550781 476.175781 41.679688 475.140625 41.191406 C 474.0625 40.648438 472.464844 40.378906 470.355469 40.378906 C 468.074219 40.347656 465.796875 40.648438 463.601562 41.265625 C 461.480469 41.914062 459.402344 42.699219 457.386719 43.621094 L 454.761719 38.0625 C 456.019531 37.128906 457.363281 36.3125 458.777344 35.632812 C 460.910156 34.574219 463.148438 33.746094 465.453125 33.160156 C 468.113281 32.460938 470.847656 32.109375 473.597656 32.121094 C 477.714844 32.121094 480.945312 32.660156 483.285156 33.742188 C 485.53125 34.722656 487.320312 36.515625 488.304688 38.757812 C 489.308594 41.023438 489.808594 44.113281 489.808594 48.023438 L 489.808594 70.953125 L 493.824219 70.953125 L 493.824219 75.816406 C 492.640625 76.070312 490.992188 76.328125 488.882812 76.585938 C 487.089844 76.820312 485.285156 76.949219 483.480469 76.972656 C 481.523438 76.972656 480.222656 76.691406 479.582031 76.125 C 478.9375 75.558594 478.613281 74.425781 478.617188 72.726562 L 478.617188 70.953125 C 477.160156 72.632812 475.40625 74.03125 473.445312 75.082031 C 471.28125 76.289062 468.785156 76.894531 465.957031 76.894531 C 463.660156 76.925781 461.390625 76.378906 459.355469 75.3125 C 457.386719 74.269531 455.753906 72.691406 454.648438 70.757812 C 453.488281 68.777344 452.910156 66.421875 452.910156 63.695312 C 452.910156 59.164062 455.210938 55.691406 459.820312 53.273438 Z M 475.066406 68.980469 C 476.136719 68.480469 477.128906 67.816406 478 67.011719 L 478 54.738281 C 473.984375 54.738281 471.011719 55.460938 469.082031 56.898438 C 467.152344 58.34375 466.1875 60.195312 466.1875 62.457031 C 466.1875 64.773438 466.703125 66.578125 467.730469 67.863281 C 468.761719 69.148438 470.175781 69.792969 471.976562 69.792969 C 473.054688 69.753906 474.109375 69.476562 475.066406 68.980469 Z M 475.066406 68.980469 "/>
<path style=" stroke:none;fill-rule:nonzero;fill:rgb(0%,0%,0%);fill-opacity:1;" d="M 507.640625 69.636719 C 508 70.207031 508.835938 70.71875 510.148438 71.183594 C 511.425781 71.640625 512.769531 71.875 514.125 71.878906 C 516.234375 71.878906 517.84375 71.425781 518.949219 70.527344 C 520.027344 69.683594 520.644531 68.382812 520.609375 67.011719 C 520.609375 65.46875 519.890625 64.195312 518.449219 63.191406 C 517.007812 62.1875 514.640625 60.964844 511.347656 59.523438 L 508.414062 58.210938 C 505.066406 56.722656 502.558594 54.90625 500.886719 52.769531 C 499.214844 50.636719 498.378906 47.921875 498.378906 44.625 C 498.355469 42.332031 499.085938 40.09375 500.460938 38.257812 C 501.851562 36.378906 503.859375 34.898438 506.484375 33.816406 C 509.109375 32.738281 512.195312 32.195312 515.746094 32.195312 C 517.890625 32.171875 520.035156 32.328125 522.152344 32.660156 C 523.953125 32.96875 525.78125 33.355469 527.636719 33.816406 C 528.539062 34.109375 529.472656 34.316406 530.414062 34.433594 L 530.414062 44.933594 L 523.542969 44.933594 L 521.535156 38.988281 C 521.277344 38.527344 520.660156 38.101562 519.683594 37.714844 C 518.625 37.316406 517.496094 37.117188 516.363281 37.136719 C 514.40625 37.136719 512.863281 37.5625 511.734375 38.410156 C 510.628906 39.203125 509.992188 40.488281 510.035156 41.847656 C 509.980469 43.386719 510.707031 44.851562 511.964844 45.746094 C 513.25 46.699219 515.308594 47.816406 518.140625 49.101562 L 519.761719 49.796875 C 523.929688 51.546875 527.199219 53.441406 529.566406 55.472656 C 531.933594 57.507812 533.117188 60.296875 533.117188 63.847656 C 533.117188 67.65625 531.597656 70.785156 528.5625 73.226562 C 525.523438 75.671875 521.046875 76.894531 515.128906 76.894531 C 512.695312 76.921875 510.261719 76.703125 507.871094 76.238281 C 505.761719 75.800781 503.445312 75.222656 500.925781 74.503906 L 498.378906 73.808594 L 498.378906 63.539062 L 505.710938 63.539062 Z M 507.640625 69.636719 "/>
<path style=" stroke:none;fill-rule:nonzero;fill:rgb(0%,0%,0%);fill-opacity:1;" d="M 548.402344 69.636719 C 548.761719 70.207031 549.597656 70.71875 550.910156 71.183594 C 552.1875 71.640625 553.53125 71.875 554.886719 71.878906 C 556.996094 71.878906 558.605469 71.425781 559.710938 70.527344 C 560.789062 69.683594 561.40625 68.382812 561.371094 67.011719 C 561.371094 65.46875 560.648438 64.195312 559.207031 63.191406 C 557.765625 62.1875 555.398438 60.964844 552.105469 59.523438 L 549.171875 58.210938 C 545.828125 56.722656 543.316406 54.90625 541.644531 52.769531 C 539.972656 50.636719 539.136719 47.921875 539.136719 44.625 C 539.113281 42.332031 539.847656 40.09375 541.222656 38.257812 C 542.609375 36.378906 544.617188 34.898438 547.242188 33.816406 C 549.867188 32.738281 552.957031 32.195312 556.507812 32.195312 C 558.652344 32.171875 560.792969 32.328125 562.914062 32.660156 C 564.714844 32.96875 566.542969 33.355469 568.394531 33.816406 C 569.300781 34.109375 570.230469 34.316406 571.175781 34.433594 L 571.175781 44.933594 L 564.304688 44.933594 L 562.296875 38.988281 C 562.039062 38.527344 561.421875 38.101562 560.445312 37.714844 C 559.382812 37.316406 558.257812 37.117188 557.125 37.136719 C 555.167969 37.136719 553.625 37.5625 552.492188 38.410156 C 551.390625 39.203125 550.753906 40.488281 550.792969 41.847656 C 550.742188 43.386719 551.464844 44.851562 552.722656 45.746094 C 554.011719 46.699219 556.070312 47.816406 558.898438 49.101562 L 560.519531 49.796875 C 564.691406 51.546875 567.957031 53.441406 570.324219 55.472656 C 572.691406 57.507812 573.875 60.296875 573.875 63.847656 C 573.875 67.65625 572.359375 70.785156 569.320312 73.226562 C 566.285156 75.671875 561.808594 76.894531 555.890625 76.894531 C 553.453125 76.921875 551.023438 76.703125 548.632812 76.238281 C 546.523438 75.800781 544.207031 75.222656 541.683594 74.503906 L 539.136719 73.808594 L 539.136719 63.539062 L 546.472656 63.539062 Z M 548.402344 69.636719 "/>
<path style=" stroke:none;fill-rule:nonzero;fill:rgb(0%,0%,0%);fill-opacity:1;" d="M 604.894531 25.171875 L 596.710938 24.089844 L 596.710938 18.6875 L 622.957031 18.6875 L 631.140625 50.957031 L 632.992188 59.523438 L 634.535156 50.957031 L 642.644531 18.6875 L 668.734375 18.6875 L 668.734375 24.089844 L 660.320312 25.171875 L 666.496094 70.101562 L 672.441406 70.949219 L 672.441406 76.046875 L 646.425781 76.046875 L 646.425781 70.949219 L 652.988281 70.101562 L 649.746094 36.828125 L 648.355469 23.242188 L 645.652344 35.59375 L 635.539062 73.808594 L 625.429688 73.808594 L 614.621094 36.671875 L 611.070312 23.164062 L 610.144531 36.828125 L 607.285156 70.101562 L 615.160156 70.949219 L 615.160156 76.046875 L 592.851562 76.046875 L 592.851562 70.949219 L 599.257812 70.179688 Z M 604.894531 25.171875 "/>
<path style=" stroke:none;fill-rule:nonzero;fill:rgb(0%,0%,0%);fill-opacity:1;" d="M 681.664062 53.273438 C 686.269531 50.851562 692.332031 49.617188 699.84375 49.566406 L 699.84375 48.023438 C 699.84375 46.167969 699.640625 44.703125 699.226562 43.621094 C 698.824219 42.550781 698.023438 41.679688 696.988281 41.191406 C 695.90625 40.648438 694.3125 40.378906 692.203125 40.378906 C 689.921875 40.347656 687.644531 40.648438 685.449219 41.265625 C 683.328125 41.914062 681.25 42.699219 679.234375 43.621094 L 676.609375 38.0625 C 677.867188 37.128906 679.210938 36.3125 680.621094 35.632812 C 682.753906 34.574219 684.992188 33.746094 687.300781 33.160156 C 689.957031 32.460938 692.695312 32.109375 695.445312 32.121094 C 699.5625 32.121094 702.789062 32.660156 705.132812 33.742188 C 707.375 34.722656 709.167969 36.515625 710.152344 38.757812 C 711.152344 41.023438 711.65625 44.113281 711.65625 48.023438 L 711.65625 70.953125 L 715.671875 70.953125 L 715.671875 75.816406 C 714.484375 76.070312 712.839844 76.328125 710.730469 76.585938 C 708.9375 76.820312 707.132812 76.949219 705.324219 76.972656 C 703.371094 76.972656 702.070312 76.691406 701.425781 76.125 C 700.785156 75.558594 700.460938 74.425781 700.460938 72.726562 L 700.460938 70.953125 C 699.003906 72.632812 697.253906 74.03125 695.289062 75.082031 C 693.128906 76.289062 690.632812 76.894531 687.800781 76.894531 C 685.503906 76.925781 683.238281 76.382812 681.203125 75.3125 C 679.234375 74.269531 677.601562 72.691406 676.492188 70.757812 C 675.335938 68.777344 674.757812 66.421875 674.757812 63.695312 C 674.757812 59.167969 677.058594 55.691406 681.664062 53.273438 Z M 696.910156 68.980469 C 697.984375 68.480469 698.972656 67.816406 699.84375 67.011719 L 699.84375 54.738281 C 695.832031 54.738281 692.859375 55.460938 690.929688 56.898438 C 689 58.34375 688.035156 60.195312 688.035156 62.457031 C 688.035156 64.773438 688.546875 66.578125 689.578125 67.863281 C 690.605469 69.148438 692.023438 69.792969 693.824219 69.792969 C 694.898438 69.753906 695.957031 69.476562 696.910156 68.980469 Z M 696.910156 68.980469 "/>
<path style=" stroke:none;fill-rule:nonzero;fill:rgb(0%,0%,0%);fill-opacity:1;" d="M 724.160156 41.230469 L 719.605469 39.839844 L 719.605469 33.816406 L 733.65625 32.121094 L 733.886719 32.121094 L 735.894531 33.742188 L 735.894531 36.597656 L 735.816406 38.371094 C 737.617188 36.671875 739.910156 35.234375 742.6875 34.050781 C 745.445312 32.871094 748.414062 32.265625 751.410156 32.273438 C 754.5 32.273438 756.929688 32.828125 758.707031 33.933594 C 760.480469 35.039062 761.769531 36.804688 762.566406 39.222656 C 763.363281 41.640625 763.761719 44.933594 763.761719 49.101562 L 763.761719 70.257812 L 768.085938 70.875 L 768.085938 76.046875 L 747.089844 76.046875 L 747.089844 70.949219 L 750.871094 70.257812 L 750.871094 49.179688 C 750.871094 46.710938 750.703125 44.792969 750.371094 43.429688 C 750.035156 42.066406 749.457031 41.074219 748.632812 40.457031 C 747.808594 39.839844 746.625 39.53125 745.082031 39.53125 C 742.714844 39.53125 740.039062 40.636719 737.054688 42.851562 L 737.054688 70.257812 L 741.300781 70.953125 L 741.300781 76.046875 L 719.914062 76.046875 L 719.914062 70.949219 L 724.160156 70.257812 Z M 724.160156 41.230469 "/>
<path style=" stroke:none;fill-rule:nonzero;fill:rgb(0%,0%,0%);fill-opacity:1;" d="M 779.007812 53.273438 C 783.613281 50.851562 789.675781 49.617188 797.1875 49.566406 L 797.1875 48.023438 C 797.1875 46.167969 796.984375 44.703125 796.570312 43.621094 C 796.167969 42.550781 795.367188 41.679688 794.332031 41.191406 C 793.25 40.648438 791.65625 40.378906 789.546875 40.378906 C 787.265625 40.347656 784.988281 40.648438 782.792969 41.265625 C 780.671875 41.914062 778.59375 42.699219 776.578125 43.621094 L 773.953125 38.0625 C 775.210938 37.128906 776.554688 36.3125 777.964844 35.632812 C 780.097656 34.574219 782.335938 33.746094 784.644531 33.160156 C 787.300781 32.460938 790.039062 32.109375 792.789062 32.121094 C 796.90625 32.121094 800.132812 32.660156 802.476562 33.742188 C 804.71875 34.722656 806.511719 36.515625 807.496094 38.757812 C 808.496094 41.023438 809 44.113281 809 48.023438 L 809 70.953125 L 813.015625 70.953125 L 813.015625 75.816406 C 811.828125 76.070312 810.183594 76.328125 808.074219 76.585938 C 806.28125 76.820312 804.476562 76.949219 802.667969 76.972656 C 800.714844 76.972656 799.414062 76.691406 798.769531 76.125 C 798.128906 75.558594 797.804688 74.425781 797.804688 72.726562 L 797.804688 70.953125 C 796.347656 72.632812 794.597656 74.03125 792.632812 75.082031 C 790.472656 76.289062 787.976562 76.894531 785.144531 76.894531 C 782.847656 76.925781 780.582031 76.382812 778.546875 75.3125 C 776.578125 74.269531 774.945312 72.691406 773.835938 70.757812 C 772.679688 68.777344 772.101562 66.421875 772.101562 63.695312 C 772.101562 59.167969 774.402344 55.691406 779.007812 53.273438 Z M 794.253906 68.980469 C 795.328125 68.480469 796.316406 67.816406 797.1875 67.011719 L 797.1875 54.738281 C 793.175781 54.738281 790.203125 55.460938 788.273438 56.898438 C 786.34375 58.34375 785.378906 60.195312 785.378906 62.457031 C 785.378906 64.773438 785.890625 66.578125 786.921875 67.863281 C 787.949219 69.148438 789.367188 69.792969 791.167969 69.792969 C 792.246094 69.753906 793.300781 69.476562 794.253906 68.980469 Z M 794.253906 68.980469 "/>
<path style=" stroke:none;fill-rule:nonzero;fill:rgb(0%,0%,0%);fill-opacity:1;" d="M 820.847656 93.570312 C 817.683594 91.355469 816.101562 88.398438 816.101562 84.691406 C 816.101562 82.632812 816.796875 80.679688 818.183594 78.824219 C 819.539062 77 821.351562 75.5625 823.433594 74.65625 C 821.015625 73.265625 819.804688 71.054688 819.804688 68.015625 C 819.804688 66.371094 820.371094 64.761719 821.503906 63.191406 C 822.664062 61.601562 824.242188 60.359375 826.058594 59.601562 C 820.347656 57.492188 817.492188 53.117188 817.492188 46.476562 C 817.441406 43.691406 818.371094 40.972656 820.117188 38.796875 C 821.863281 36.609375 824.230469 34.9375 827.21875 33.777344 C 830.375 32.589844 833.726562 32 837.097656 32.042969 C 843.53125 32.042969 848.242188 33.226562 851.226562 35.59375 C 851.945312 34.71875 853.078125 33.882812 854.621094 33.085938 C 856.097656 32.304688 857.738281 31.894531 859.410156 31.886719 L 862.1875 31.886719 L 862.1875 41.304688 L 854.546875 41.304688 C 855.054688 42.71875 855.316406 44.207031 855.316406 45.707031 C 855.316406 50.441406 853.644531 54.199219 850.300781 56.976562 C 846.953125 59.757812 842.191406 61.148438 836.019531 61.148438 C 833.921875 61.1875 831.824219 61.003906 829.765625 60.605469 C 829.457031 61.222656 829.210938 61.871094 829.03125 62.535156 C 828.875 63.0625 828.78125 63.609375 828.761719 64.15625 C 828.761719 65.753906 829.351562 66.847656 830.535156 67.4375 C 831.71875 68.03125 833.882812 68.328125 837.019531 68.328125 L 844.972656 68.328125 C 855.832031 68.328125 861.261719 72.210938 861.261719 79.984375 C 861.285156 83.316406 860.011719 86.527344 857.710938 88.9375 C 855.34375 91.511719 852.242188 93.480469 848.40625 94.84375 C 844.503906 96.21875 840.390625 96.914062 836.25 96.890625 C 829.148438 96.890625 824.015625 95.785156 820.847656 93.570312 Z M 844.972656 88.863281 C 846.980469 87.367188 847.984375 85.257812 847.984375 82.53125 C 847.984375 80.371094 847.441406 78.839844 846.363281 77.9375 C 845.28125 77.035156 843.378906 76.585938 840.648438 76.585938 L 832.777344 76.585938 C 831.953125 76.585938 831.027344 76.535156 829.996094 76.433594 C 829.019531 78.027344 828.527344 80.007812 828.53125 82.375 C 828.53125 88.191406 831.59375 91.101562 837.714844 91.101562 C 840.546875 91.101562 842.964844 90.355469 844.972656 88.863281 Z M 841.460938 53.464844 C 842.410156 51.84375 842.886719 49.515625 842.886719 46.476562 C 842.886719 43.183594 842.398438 40.792969 841.421875 39.296875 C 840.441406 37.804688 838.875 37.058594 836.710938 37.058594 C 832.335938 37.058594 830.152344 40.097656 830.152344 46.167969 C 830.152344 52.65625 832.363281 55.898438 836.789062 55.898438 C 838.953125 55.898438 840.507812 55.085938 841.460938 53.464844 Z M 841.460938 53.464844 "/>
<path style=" stroke:none;fill-rule:nonzero;fill:rgb(0%,0%,0%);fill-opacity:1;" d="M 870.136719 70.914062 C 866.742188 66.925781 865.042969 61.480469 865.042969 54.585938 C 865.042969 49.902344 865.917969 45.863281 867.667969 42.464844 C 869.292969 39.199219 871.863281 36.496094 875.039062 34.707031 C 878.207031 32.929688 881.921875 32.042969 886.195312 32.042969 C 891.597656 32.042969 895.730469 33.40625 898.585938 36.132812 C 901.441406 38.863281 902.921875 42.722656 903.023438 47.714844 C 903.023438 51.007812 902.792969 53.660156 902.328125 55.664062 L 878.167969 55.664062 C 878.421875 60.039062 879.492188 63.371094 881.371094 65.664062 C 883.25 67.953125 885.886719 69.097656 889.285156 69.097656 C 891.316406 69.078125 893.332031 68.753906 895.265625 68.132812 C 897.042969 67.625 898.742188 66.886719 900.324219 65.933594 L 902.484375 70.640625 C 901.144531 72.136719 898.867188 73.550781 895.652344 74.886719 C 892.539062 76.207031 889.191406 76.886719 885.808594 76.894531 C 878.757812 76.894531 873.535156 74.902344 870.136719 70.914062 Z M 890.75 50.570312 L 890.828125 47.328125 C 890.828125 44.085938 890.390625 41.613281 889.515625 39.917969 C 888.640625 38.21875 887.148438 37.367188 885.039062 37.367188 C 882.875 37.367188 881.203125 38.308594 880.019531 40.1875 C 878.835938 42.066406 878.191406 45.527344 878.089844 50.570312 Z M 890.75 50.570312 "/>
<path style=" stroke:none;fill-rule:nonzero;fill:rgb(0%,0%,0%);fill-opacity:1;" d="M 908.734375 70.949219 L 913.445312 70.257812 L 913.445312 41.230469 L 908.890625 39.839844 L 908.890625 33.816406 L 921.703125 32.121094 L 921.9375 32.121094 L 924.097656 33.742188 L 924.097656 35.59375 L 923.867188 42 L 924.097656 42 C 924.457031 40.816406 925.28125 39.441406 926.566406 37.871094 C 927.945312 36.226562 929.605469 34.839844 931.46875 33.777344 C 933.421875 32.628906 935.648438 32.027344 937.914062 32.042969 C 939.253906 32.042969 940.28125 32.222656 941.003906 32.582031 L 941.003906 46.015625 C 940.191406 45.402344 939.292969 44.910156 938.339844 44.546875 C 937.160156 44.152344 935.917969 43.96875 934.675781 44.007812 C 932.972656 43.984375 931.277344 44.234375 929.65625 44.742188 C 928.398438 45.117188 927.203125 45.679688 926.105469 46.402344 L 926.105469 70.257812 L 934.597656 71.027344 L 934.597656 76.046875 L 908.734375 76.046875 Z M 908.734375 70.949219 "/>
<path style=" stroke:none;fill-rule:nonzero;fill:rgb(0%,0%,0%);fill-opacity:1;" d="M 72.183594 0 L 21.925781 0 C 9.816406 0 0 9.816406 0 21.929688 L 0 72.1875 C 0 84.296875 9.816406 94.113281 21.925781 94.113281 L 72.183594 94.113281 C 84.292969 94.113281 94.109375 84.296875 94.109375 72.1875 L 94.109375 21.929688 C 94.109375 9.816406 84.292969 0 72.183594 0 Z M 79.757812 46.691406 L 59.597656 53.242188 L 72.054688 70.390625 C 73.542969 72.4375 73.089844 75.300781 71.042969 76.789062 L 65.910156 80.519531 C 63.863281 82.003906 61 81.550781 59.511719 79.503906 L 47.054688 62.355469 L 34.597656 79.503906 C 33.109375 81.550781 30.246094 82.003906 28.199219 80.519531 L 23.066406 76.789062 C 21.019531 75.300781 20.566406 72.4375 22.054688 70.390625 L 34.511719 53.242188 L 14.355469 46.691406 C 11.949219 45.910156 10.632812 43.328125 11.414062 40.921875 L 13.375 34.886719 C 14.15625 32.484375 16.738281 31.167969 19.144531 31.949219 L 39.304688 38.5 L 39.304688 17.300781 C 39.304688 14.773438 41.351562 12.722656 43.882812 12.722656 L 50.226562 12.722656 C 52.757812 12.722656 54.804688 14.773438 54.804688 17.300781 L 54.804688 38.5 L 74.964844 31.949219 C 77.371094 31.167969 79.953125 32.484375 80.734375 34.886719 L 82.695312 40.921875 C 83.476562 43.328125 82.160156 45.910156 79.757812 46.691406 Z M 79.757812 46.691406 "/>
</g>
</svg>
