<svg id="Layer_1" data-name="Layer 1" xmlns="http://www.w3.org/2000/svg" viewBox="0 0 2000 2000"><defs><style>.cls-1{fill:#ffd527;}.cls-2{fill:#333338;}</style></defs><title>pocket_pass_manager_icon_rounded</title><rect id="BG" class="cls-1" width="2000" height="2000" rx="359.17"/><g id="Asterisc"><path class="cls-2" d="M1757.44,869.62l-41.66-128.23a97.32,97.32,0,0,0-122.63-62.48l-428.41,139.2V367.65a97.33,97.33,0,0,0-97.33-97.32H932.58a97.32,97.32,0,0,0-97.32,97.32V818.11L406.85,678.91A97.32,97.32,0,0,0,284.22,741.4L242.56,869.63A97.31,97.31,0,0,0,305,992.26l428.41,139.2L468.68,1495.88a97.31,97.31,0,0,0,21.53,135.94l109.08,79.25a97.31,97.31,0,0,0,135.94-21.53L1000,1325.12l264.77,364.42a97.31,97.31,0,0,0,135.94,21.53l109.08-79.25a97.33,97.33,0,0,0,21.53-135.94l-264.77-364.42L1695,992.26A97.33,97.33,0,0,0,1757.44,869.62Z"/></g></svg>